<svg id="flower" xmlns="http://www.w3.org/2000/svg" viewBox="0 0 299.74 287.02"><title>flower</title><path d="M278.65,71.42c-20.9-29-58.47,11.64-65,29-11.92,31.62-19.74,34.84-19.74,34.84s-36.17,21.57-7-55.74c25-66.25-32.32-66.25-32.32-66.25S120.73,11,108,36.58s16.26,56.9,24.39,98.71-36-18.58-36-18.58C60.4,43,27.83,71.42,27.83,71.42s-40.65,30.19-23.23,72S104.47,162,104.47,162c19.74-4.64,15.09,16.26,15.09,16.26s-2.32,19.74-44.12,15.1-54.58,20.9-55.74,36,24.38,68.51,53.42,70.83,37.15-40.64,55.73-77.8,35-14.54,35-14.54,13.81,12.22,19.61,34.28,45.28,85.34,76.64,43.54-31.35-70.25-31.35-70.25-26.71-8.13-40.64-31.35,23.22-18.58,23.22-18.58S234.67,170.19,274,155C315.71,139,299.56,100.45,278.65,71.42ZM168.76,173.18c-5,17-22,4-22,4s-10-5-4-18c0,0,5-8,13-5C155.78,154.21,173.75,156.21,168.76,173.18Z" transform="translate(-0.26 -13.25)"/></svg>