<svg id="hat" xmlns="http://www.w3.org/2000/svg" viewBox="0 0 190.93 300"><title>hat</title><path d="M253.89,213c-8.31-24.94-30.48-5.54-30.48-5.54-13.85,15.24-27.71,19.4-27.71,19.4l-11.08,2.77c-20.78-61-24.94-162.1-24.94-175.95,0-13.11-11.18-44.82-42.92-48.18C116.11,0,112.33,0,108.54,0c-3.1,0-4.47,4-5,6.09C74.57,13.06,71,59.24,71,59.24,64.09,190.86,97.34,294.76,97.34,294.76c6.93,13.86,73.43-4.15,73.43-4.15l27.7-5.55s31.87-12.46,49.88-24.93S262.2,238,253.89,213ZM150,210.25c-14.82,0-13.85-5.54-13.85-5.54l3.65-1a5.24,5.24,0,0,0,6.88,2l-7.86-59-11,2.58-.82-4.55,11.8-2.94-3.18-33.47s-7.41,2.47-8.62-10.75,7.87-14.74,7.87-14.74,9.6-.77,10.8,10.81-5.89,13.75-5.89,13.75l3.93,33.41,8-1.7v3.31l-8,2.32,8.84,60.93c6.93,0,3.93-3.93,3.93-3.93h4.92A11.18,11.18,0,0,1,150,210.25Z" transform="translate(-70.07)"/><path d="M143.06,96.65c0-11.09-8.31-11.09-8.31-11.09S128,87.75,129.2,96.65c1.52,11.06,7.46,9.6,7.46,9.6S143.06,107.73,143.06,96.65Z" transform="translate(-70.07)"/></svg>
