<svg aria-hidden="true" style="position: absolute; width: 0; height: 0; overflow: hidden;" version="1.1" xmlns="http://www.w3.org/2000/svg" xmlns:xlink="http://www.w3.org/1999/xlink">
<defs>
<symbol id="flower" viewBox="0 0 32 32">
<title>flower</title>
<path d="M29.695 6.898c-2.229-3.093-6.237 1.242-6.933 3.093-1.271 3.373-2.106 3.716-2.106 3.716s-3.858 2.301-0.747-5.946c2.667-7.067-3.447-7.067-3.447-7.067s-3.612-0.242-4.97 2.486 1.734 6.069 2.602 10.529-3.84-1.982-3.84-1.982c-3.839-7.862-7.313-4.831-7.313-4.831s-4.336 3.22-2.478 7.68 10.653 1.982 10.653 1.982c2.106-0.495 1.61 1.734 1.61 1.734s-0.247 2.106-4.706 1.611-5.822 2.229-5.946 3.84 2.601 7.308 5.698 7.555 3.963-4.335 5.945-8.299 3.733-1.551 3.733-1.551 1.473 1.303 2.092 3.657 4.83 9.103 8.175 4.644-3.344-7.493-3.344-7.493-2.849-0.867-4.335-3.344 2.477-1.982 2.477-1.982 2.49 0.501 6.685-1.119c4.449-1.707 2.726-5.819 0.496-8.915zM17.973 17.753c-0.533 1.813-2.347 0.427-2.347 0.427s-1.067-0.533-0.427-1.92c0 0 0.533-0.853 1.387-0.533 0.002 0.003 1.919 0.217 1.387 2.027z"></path>
</symbol>
<symbol id="hat" viewBox="0 0 20 32">
<title>hat</title>
<path d="M19.607 22.72c-0.886-2.66-3.251-0.591-3.251-0.591-1.477 1.626-2.956 2.069-2.956 2.069l-1.182 0.295c-2.217-6.507-2.66-17.291-2.66-18.768 0-1.398-1.193-4.781-4.578-5.139-0.069-0.587-0.473-0.587-0.877-0.587-0.331 0-0.477 0.427-0.533 0.65-3.090 0.743-3.471 5.669-3.471 5.669-0.737 14.039 2.81 25.122 2.81 25.122 0.739 1.478 7.833-0.443 7.833-0.443l2.955-0.592s3.399-1.329 5.321-2.659 1.477-2.361 0.591-5.027zM8.526 22.427c-1.581 0-1.477-0.591-1.477-0.591l0.389-0.107c0.099 0.165 0.277 0.274 0.481 0.274 0.092 0 0.179-0.022 0.256-0.062l-0.003 0.001-0.838-6.293-1.173 0.275-0.087-0.485 1.259-0.314-0.339-3.57s-0.79 0.263-0.919-1.147 0.839-1.572 0.839-1.572 1.024-0.082 1.152 1.153-0.628 1.467-0.628 1.467l0.419 3.564 0.853-0.181v0.353l-0.853 0.247 0.943 6.499c0.739 0 0.419-0.419 0.419-0.419h0.525c-0.132 0.526-0.6 0.909-1.158 0.909-0.020 0-0.040-0-0.060-0.002l0.003 0z"></path>
<path d="M7.786 10.309c0-1.183-0.886-1.183-0.886-1.183s-0.72 0.234-0.592 1.183c0.162 1.18 0.796 1.024 0.796 1.024s0.683 0.158 0.683-1.024z"></path>
</symbol>
<symbol id="jellyfish" viewBox="0 0 22 32">
<title>jellyfish</title>
<path d="M21.566 25.655c-0.351-1.638-0.91-2.866-2.485-5.186-1.345-1.981-2.283-2.667-2.529-3.506 1.892-0.611 2.88-1.18 2.932-1.28 0.113-0.226 0.452-0.339 0.226-1.245s-1.358-1.132-1.358-1.132 0.453-1.697 0-5.653-2.149-5.548-4.3-6.907-8.26-0.451-8.26-0.451c-6.451 1.132-5.772 7.582-5.772 7.582 0.113 4.187 4.753 8.26 4.753 8.26-0.289 0.159-0.52 0.391-0.675 0.671l-0.004 0.009c-0.339 1.018 0.566 1.813 0.566 1.813 0.698 0 1.37-0.016 2.019-0.043-0.107 1.11 0.037 3.139 1.966 4.927 0 0 2.26 1.957 1.866 5.493 0 0-0.228 1.206-0.381 2.011s0.547 1.493 1.018 0.471 0.903-3.301 0.375-5.623-1.545-3.488-2.027-3.857-1.866-1.571-1.424-3.498c0.682-0.048 1.33-0.107 1.952-0.183-0.118 1.173 0.177 2.915 1.713 5.283 3.275 5.049 4.185 6.827 5.458 7.095s2.732 0.406 1.637-0.414-3.119-2.453-3.846-3.957-2.593-2.592-3.003-6.414c-0.088-0.49-0.138-1.054-0.138-1.629 0-0.078 0.001-0.155 0.003-0.233l-0 0.012c0.293-0.048 0.577-0.098 0.853-0.149 0.188 0.906 0.404 1.979 0.647 3.229 0 0 1.228 3.821 4.775 5.458 0 0 2.047 0.96 2.047 0.546 0 0-0.545-1.091-2.32-2.32-1.667-1.155-1.91-1.227-2.724-3.822-0.589-1.863-0.722-2.606-0.825-3.428 0.351-0.083 0.686-0.167 1.002-0.254 0.389 0.804 1.104 2.005 2.413 3.819 3.152 4.367 2.627 5.867 2.627 5.867s-0.176 1.637-0.526 2.73 0.701 0.682 1.051 0 1.046-2.453 0.697-4.091zM15.583 7.266c1.11-0.32 1.587 0.476 1.587 1.269s-1.111 0.793-1.111 0.793-0.635 0-0.793-0.951 0.317-1.11 0.317-1.11zM14.314 8.853c-0.159 1.111-1.587 1.269-1.904 1.269s-0.953-0.158-1.11-1.428 1.268-0.953 1.268-0.953 1.905 0 1.746 1.111zM12.887 6.948s-2.539 0.159-2.539-2.539 1.745-2.222 1.745-2.222 2.857 0 3.174 2.222-2.381 2.539-2.381 2.539z"></path>
</symbol>
<symbol id="patrickhouse" viewBox="0 0 32 32">
<title>patrickhouse</title>
<path d="M31.404 20.465c-0.544-4.080-2.717-6.119-2.717-6.119s-2.39-2.279-5.325-3.84c-1.807-0.96-4.56-1.238-6.411-1.31l-0.272-2.087 1.335-0.27 0.202 0.299 0.202-0.075-0.213-0.279 0.213-0.469h-0.202l-0.202 0.374-1.413 0.15-0.031-0.599h-0.32l0.107 0.652-1.871 0.246 0.101-0.299h-0.203l-0.202 0.374 0.303 0.373 0.202-0.075-0.178-0.186 1.847-0.213 0.29 2.077c-0.987-0.028-1.649 0-1.649 0-3.803-0.24-8.313 4.14-8.313 4.14s-2.336 2.46-4.292 4.62-2.394 7.796-2.394 7.796h31.947c-0.107-2.279-0.543-5.28-0.543-5.28z"></path>
</symbol>
<symbol id="spatula" viewBox="0 0 28 32">
<title>spatula</title>
<path d="M4.457 30.411c0.627-1.152 0.304-0.942 1.141-1.803 0.388-0.391 0.697-0.861 0.899-1.384l0.009-0.027c0.307-0.62 0.719-1.142 1.218-1.566l0.007-0.006c0.901-0.758 0.993-1.335 0.993-1.335s0.188-0.438 0.847-1.228l1.706-2.086s0.807-1.083 0.1-1.617l5.802-7.231s0.406-0.599 0.769-0.632l4.27-0.293s0.31 0 0.464-0.161l4.898-5.353c0.085-0.078 0.138-0.19 0.138-0.314 0-0.086-0.025-0.165-0.069-0.232l0.001 0.002-5.354-5.052s-0.256-0.253-0.698 0.087l-5.101 5.587c-0.053 0.096-0.091 0.208-0.106 0.327l-0 0.005 0.459 4.326s0.083 0.387-0.533 1.018l-5.963 7.076s-0.371-0.454-1.092-0.107c0 0-0.471 0.257-2.308 2.764-0.114 0.216-0.272 0.395-0.463 0.53l-0.005 0.003c-0.608 0.41-1.092 0.958-1.416 1.601l-0.011 0.024c-0.435 0.898-0.994 1.179-0.994 1.179s-0.772 0.32-1.223 1.416c0 0-0.336 0.774-0.915 1.256 0 0-1.528 1.030-1.919 2.848 0 0-0.087 0.563 0.69 1.349 0.819 0.825 1.893 0.59 1.893 0.59s1.24-0.407 1.867-1.559zM25.609 4.946s0.208 0.355 0.036 0.551-3.953 4.502-3.953 4.502-0.272 0.31-0.649-0.050c-0.313-0.299 0.222-0.844 0.222-0.844l3.793-4.124s0.258-0.293 0.551-0.035zM18.114 7.108c-0.373-0.364-0.1-0.64-0.1-0.64l4.177-4.295c0.272-0.28 0.552-0.009 0.552-0.009 0.28 0.273 0.007 0.553 0.007 0.553l-3.811 4.102s-0.451 0.651-0.825 0.288zM19.606 8.561c-0.28-0.273-0.007-0.552-0.007-0.552l1.999-2.053c0.092-0.094 2.086-2.333 2.268-2.519s0.465 0.27 0.465 0.27c0.096 0.275 0 0.369 0 0.369l-4.175 4.478s-0.267 0.281-0.547 0.009z"></path>
</symbol>
</defs>
</svg>
