<svg id="jeyllfish" xmlns="http://www.w3.org/2000/svg" viewBox="0 0 203.07 300"><title>jellyfish</title><path d="M237.36,240.52c-3.29-15.36-8.53-26.87-23.3-48.62-12.61-18.57-21.4-25-23.71-32.87,17.74-5.73,27-11.06,27.49-12,1.06-2.12,4.24-3.18,2.12-11.67s-12.73-10.61-12.73-10.61,4.25-15.91,0-53S187.08,19.74,166.92,7,89.48,2.77,89.48,2.77C29,13.38,35.37,73.85,35.37,73.85c1.06,39.25,44.56,77.44,44.56,77.44a15.89,15.89,0,0,0-6.37,6.37c-3.18,9.54,5.31,17,5.31,17,6.54,0,12.84-.15,18.93-.4-1,10.41.35,29.43,18.43,46.19,0,0,21.19,18.35,17.49,51.5,0,0-2.14,11.31-3.57,18.85s5.13,14,9.54,4.42,8.47-30.95,3.52-52.72-14.48-32.7-19-36.16-17.49-14.73-13.35-32.79c6.39-.45,12.47-1,18.3-1.72-1.11,11,1.66,27.33,16.06,49.53,30.7,47.33,39.23,64,51.17,66.52S222,291.69,211.74,284s-29.24-23-36.06-37.1-24.31-24.3-28.15-60.13a90.82,90.82,0,0,1-1.27-17.35c2.75-.45,5.41-.92,8-1.4,1.76,8.49,3.79,18.55,6.07,30.27,0,0,11.51,35.82,44.77,51.17,0,0,19.19,9,19.19,5.12,0,0-5.11-10.23-21.75-21.75C186.91,222,184.63,221.33,177,197c-5.52-17.47-6.77-24.43-7.73-32.14,3.29-.78,6.43-1.57,9.39-2.38,3.65,7.54,10.35,18.8,22.62,35.8,29.55,40.94,24.63,55,24.63,55s-1.65,15.35-4.93,25.59,6.57,6.39,9.85,0S240.64,255.87,237.36,240.52ZM181.27,68.12c10.41-3,14.88,4.46,14.88,11.9s-10.42,7.43-10.42,7.43-5.95,0-7.43-8.92S181.27,68.12,181.27,68.12ZM169.37,83c-1.49,10.42-14.88,11.9-17.85,11.9s-8.93-1.48-10.41-13.39S153,72.58,153,72.58,170.86,72.58,169.37,83ZM156,65.14s-23.8,1.49-23.8-23.8,16.36-20.83,16.36-20.83,26.78,0,29.76,20.83S156,65.14,156,65.14Z" transform="translate(-35.18 0)"/></svg>