<svg id="patricks" xmlns="http://www.w3.org/2000/svg" viewBox="0 0 299.5 182.86">
  <title>patricks</title>
  <defs>
    <style>

      path {
        animation: spin 4s infinite linear;
      }

      @keyframes spin {
	       0% {transform: rotate(0deg);}
	       100% {transform: rotate(360deg);}
      }


    </style>
  </defs>
  <path d="M294.91,251c-5.1-38.25-25.47-57.37-25.47-57.37s-22.41-21.37-49.92-36c-16.94-9-42.75-11.61-60.1-12.28l-2.55-19.57,12.52-2.53,1.89,2.8,1.89-.7-2-2.62,2-4.4h-1.89l-1.89,3.51-13.25,1.41-.29-5.62h-3l1,6.11-17.54,2.31.95-2.8h-1.9l-1.89,3.51,2.84,3.5,1.89-.7-1.67-1.74,17.32-2,2.72,19.47c-9.25-.26-15.46,0-15.46,0-35.65-2.25-77.93,38.81-77.93,38.81s-21.9,23.06-40.24,43.31S.5,300.5.5,300.5H300C299,279.13,294.91,251,294.91,251Z" transform="translate(-0.5 -117.64)"/>
</svg>
