<svg id="spatula" xmlns="http://www.w3.org/2000/svg" viewBox="0 0 260.03 300.15"><title>spatula</title><path d="M66.78,285.39c5.88-10.81,2.85-8.84,10.7-16.91A37.62,37.62,0,0,0,86,255.24,45.37,45.37,0,0,1,97.49,240.5c8.45-7.11,9.31-12.52,9.31-12.52s1.76-4.11,7.94-11.52l16-19.57s7.57-10.16.94-15.17L186.1,113.9s3.81-5.62,7.21-5.93l40.05-2.75s2.91,0,4.35-1.51L283.65,53.5a4,4,0,0,0,.66-5.11L234.09,1s-2.4-2.37-6.55.82L179.69,54.22a8.85,8.85,0,0,0-1,3.11L183,97.91s.78,3.63-5,9.55l-55.93,66.37s-3.48-4.26-10.24-1c0,0-4.42,2.41-21.65,25.93a14,14,0,0,1-4.39,5A39.21,39.21,0,0,0,72.41,219c-4.08,8.42-9.32,11.06-9.32,11.06s-7.24,3-11.47,13.28c0,0-3.15,7.26-8.58,11.78,0,0-14.33,9.66-18,26.71,0,0-.82,5.28,6.47,12.65,7.68,7.74,17.76,5.53,17.76,5.53S60.9,296.19,66.78,285.39ZM265.17,46.53s1.95,3.33.34,5.17-37.08,42.23-37.08,42.23-2.55,2.91-6.09-.47c-2.94-2.8,2.08-7.92,2.08-7.92L260,46.86S262.42,44.11,265.17,46.53Zm-70.3,20.28c-3.5-3.41-.94-6-.94-6l39.18-40.29c2.55-2.63,5.18-.08,5.18-.08,2.63,2.56.07,5.19.07,5.19L202.61,64.11S198.38,70.22,194.87,66.81Zm14,13.63c-2.63-2.56-.07-5.18-.07-5.18L227.55,56c.86-.88,19.57-21.88,21.27-23.63s4.36,2.53,4.36,2.53c.9,2.58,0,3.46,0,3.46l-39.16,42S211.52,83,208.89,80.44Z" transform="translate(-24.97 -0.14)"/></svg>